PathFileType	4	(x/y/z)	S06_SL_Cal_T01
DataRate	CameraRate	NumFrames	NumMarkers	Units	OrigDataRate	OrigDataStartFrame	OrigNumFrames
240	240	10	51	mm	240	1	2399
Frame#	Time	Sternum			R.Acromium			L.Acromium			Top.Head			R.ASIS			L.ASIS			R.PSIS			L.PSIS			R.Great.Tro			L.Great.Tro			R.Iliac.Crest			L.Iliac.Crest			V.Sacral			R.Thigh.Upper.Post			R.Thigh.Lower.Ant			R.Thigh.Lower.Post			R.Thigh.Upper.Ant			R.Knee.Lat			R.Knee.Med			R.Shank.Upper.Post			R.Shank.Lower.Ant			R.Shank.Lower.Post			R.Shank.Upper.Ant			R.Ankle.Lat			R.Ankle.Med			R.Heel.Upper			R.Heel.Med			R.Heel.Lat			R.Toe.Lat			R.Toe.Med			R.Toe.Tip			L.Thigh.Upper.Post			L.Thigh.Lower.Ant			L.Thigh.Lower.Post			L.Thigh.Upper.Ant			L.Knee.Lat			L.Knee.Med			L.Shank.Upper.Post			L.Shank.Lower.Ant			L.Shank.Lower.Post			L.Shank.Upper.Ant			L.Ankle.Lat			L.Ankle.Med			L.Heel.Upper			L.Heel.Med			L.Heel.Lat			L.Toe.Lat			L.Toe.Med			L.Toe.Tip			Cervical.Spine			Back			
		X1	Y1	Z1	X2	Y2	Z2	X3	Y3	Z3	X4	Y4	Z4	X5	Y5	Z5	X6	Y6	Z6	X7	Y7	Z7	X8	Y8	Z8	X9	Y9	Z9	X10	Y10	Z10	X11	Y11	Z11	X12	Y12	Z12	X13	Y13	Z13	X14	Y14	Z14	X15	Y15	Z15	X16	Y16	Z16	X17	Y17	Z17	X18	Y18	Z18	X19	Y19	Z19	X20	Y20	Z20	X21	Y21	Z21	X22	Y22	Z22	X23	Y23	Z23	X24	Y24	Z24	X25	Y25	Z25	X26	Y26	Z26	X27	Y27	Z27	X28	Y28	Z28	X29	Y29	Z29	X30	Y30	Z30	X31	Y31	Z31	X32	Y32	Z32	X33	Y33	Z33	X34	Y34	Z34	X35	Y35	Z35	X36	Y36	Z36	X37	Y37	Z37	X38	Y38	Z38	X39	Y39	Z39	X40	Y40	Z40	X41	Y41	Z41	X42	Y42	Z42	X43	Y43	Z43	X44	Y44	Z44	X45	Y45	Z45	X46	Y46	Z46	X47	Y47	Z47	X48	Y48	Z48	X49	Y49	Z49	X50	Y50	Z50	X51	Y51	Z51	

1	0	766.92	1312.2	317.36	625.67	1542.7	465.88	618.34	1533.4	150.28	691.31	1827.8	310.39	729.92	1065	442.96	739.12	1057.9	189.7	533.45	1086.2	342.64	535.53	1089.3	262.32	665.92	1000.9	490.93	640.69	995.28	135.5	644.02	1142.5	470.34	670.58	1134.2	151.09	519.91	1052.6	304.96	642.59	752.74	497.31	691.31	666.91	470.13	623.2	666.48	481.86	714.94	754.41	482.01	632.94	551.66	476.72	639.21	543.81	350.48	568.74	328.7	495.08	626.07	260.01	479.94	561.5	251.32	485.2	634.56	336.18	488.83	587.8	112.22	471.86	605.2	112.08	385.14	522.81	74.329	428.58	531.33	43.816	397.7	529.4	43.235	463.21	704.66	35.879	506.89	734.53	44.092	387.54	799.76	53.182	436.63	669.94	732.94	130.89	715.61	644.4	178.29	644.87	646.21	143.06	735.11	736.99	163.55	621.16	551.26	152.16	656.26	542.95	270.35	559.72	326.99	143.65	620.75	263.22	133.64	552.82	254.54	154.09	624.19	334.73	129.23	589.28	111.45	136.76	606.73	108.87	225.65	519.13	72.747	179.58	527.21	45.382	212.05	522.3	47.474	149.52	697.6	45.855	98.758	727.76	43.337	216.39	795.57	55.248	157.54	584.08	1560.3	307.5	531.16	1292.8	308.98
2	0.0041667	766.9	1312.2	317.34	625.65	1542.8	465.88	619.41	1533.6	150.12	691.25	1827.8	310.38	729.92	1065	442.96	739.12	1057.9	189.69	533.45	1086.2	342.64	535.52	1089.3	262.34	665.94	1001	490.96	640.69	995.27	135.52	644.05	1142.6	470.35	670.62	1134.2	151.11	519.92	1052.7	305	642.58	752.78	497.33	691.31	666.93	470.19	623.21	666.53	481.91	714.93	754.45	482.05	632.95	551.68	476.73	639.22	543.82	350.48	568.8	328.72	495.06	626.05	260.07	479.99	561.49	251.36	485.27	634.57	336.19	488.87	587.82	112.24	471.87	605.31	112.11	385.16	522.78	74.355	428.58	531.34	43.829	397.71	529.38	43.266	463.22	704.66	35.918	506.91	734.55	44.097	387.54	799.79	53.251	436.61	669.96	732.96	130.89	715.61	644.4	178.29	644.87	646.22	143.08	735.1	736.99	163.55	621.17	551.28	152.17	656.26	542.93	270.33	559.74	327.02	143.65	620.78	263.2	133.72	552.87	254.57	154.08	624.25	334.7	129.28	589.34	111.47	136.78	606.73	108.88	225.64	519.09	72.787	179.56	526.98	45.493	212.01	522.31	47.473	149.55	697.59	45.842	98.776	727.76	43.34	216.39	795.55	55.247	157.53	584.06	1560.3	307.54	531.27	1292.9	308.99
3	0.0083333	766.87	1312.2	317.32	625.64	1542.8	465.87	620.46	1533.7	149.97	691.2	1827.8	310.37	729.91	1065	442.95	739.11	1057.9	189.69	533.45	1086.2	342.64	535.52	1089.3	262.36	665.96	1001	490.99	640.7	995.25	135.54	644.08	1142.6	470.37	670.66	1134.2	151.13	519.93	1052.7	305.04	642.57	752.82	497.35	691.32	666.96	470.24	623.22	666.59	481.95	714.92	754.49	482.09	632.95	551.7	476.74	639.23	543.84	350.47	568.85	328.73	495.03	626.03	260.13	480.04	561.49	251.4	485.34	634.59	336.2	488.91	587.83	112.26	471.87	605.42	112.14	385.18	522.75	74.382	428.58	531.35	43.841	397.72	529.36	43.296	463.23	704.66	35.957	506.93	734.58	44.103	387.54	799.82	53.319	436.59	669.98	732.98	130.89	715.61	644.41	178.3	644.87	646.24	143.1	735.08	737	163.55	621.18	551.29	152.19	656.26	542.92	270.31	559.77	327.04	143.65	620.81	263.17	133.79	552.93	254.6	154.06	624.31	334.66	129.33	589.4	111.49	136.79	606.74	108.89	225.63	519.06	72.827	179.55	526.76	45.6	211.97	522.32	47.473	149.58	697.58	45.829	98.795	727.75	43.343	216.38	795.53	55.246	157.53	584.04	1560.4	307.57	531.38	1292.9	309
4	0.0125	766.84	1312.2	317.29	625.62	1542.8	465.86	621.48	1533.9	149.82	691.15	1827.7	310.36	729.91	1065	442.94	739.1	1057.9	189.68	533.46	1086.2	342.64	535.52	1089.3	262.38	665.98	1001	491.02	640.71	995.24	135.57	644.11	1142.6	470.38	670.7	1134.2	151.15	519.93	1052.7	305.08	642.56	752.86	497.37	691.33	666.98	470.29	623.22	666.65	481.99	714.9	754.53	482.12	632.96	551.72	476.76	639.24	543.85	350.47	568.91	328.74	495.01	626	260.18	480.08	561.48	251.44	485.4	634.61	336.21	488.95	587.85	112.28	471.87	605.53	112.16	385.2	522.71	74.407	428.58	531.36	43.852	397.73	529.35	43.325	463.23	704.66	35.995	506.95	734.6	44.109	387.53	799.86	53.385	436.57	670	733	130.9	715.61	644.41	178.3	644.87	646.26	143.11	735.07	737	163.55	621.19	551.31	152.21	656.26	542.91	270.29	559.8	327.06	143.66	620.84	263.15	133.85	552.98	254.62	154.05	624.36	334.63	129.38	589.45	111.51	136.8	606.74	108.9	225.62	519.02	72.866	179.54	526.54	45.702	211.94	522.33	47.473	149.61	697.57	45.817	98.812	727.75	43.347	216.38	795.51	55.244	157.52	584.01	1560.4	307.61	531.48	1292.9	309.01
5	0.016667	766.82	1312.2	317.27	625.61	1542.8	465.85	622.44	1534	149.68	691.1	1827.7	310.34	729.9	1065	442.93	739.1	1057.9	189.67	533.46	1086.2	342.65	535.52	1089.3	262.4	665.99	1001.1	491.05	640.71	995.23	135.59	644.13	1142.6	470.39	670.73	1134.2	151.17	519.94	1052.8	305.12	642.55	752.9	497.39	691.34	667	470.34	623.23	666.7	482.03	714.89	754.56	482.16	632.96	551.74	476.77	639.25	543.86	350.46	568.96	328.76	494.98	625.98	260.23	480.13	561.47	251.48	485.46	634.62	336.22	488.98	587.86	112.29	471.87	605.62	112.19	385.21	522.68	74.431	428.58	531.37	43.863	397.74	529.33	43.352	463.24	704.66	36.031	506.97	734.62	44.114	387.53	799.88	53.447	436.55	670.02	733.02	130.9	715.61	644.41	178.31	644.87	646.27	143.12	735.05	737.01	163.55	621.19	551.32	152.22	656.26	542.9	270.28	559.82	327.09	143.66	620.87	263.12	133.92	553.03	254.65	154.04	624.42	334.6	129.42	589.5	111.52	136.81	606.75	108.91	225.61	518.99	72.902	179.53	526.35	45.796	211.91	522.34	47.473	149.63	697.56	45.806	98.828	727.75	43.35	216.37	795.49	55.242	157.51	583.99	1560.4	307.64	531.58	1293	309.02
6	0.020833	766.79	1312.3	317.25	625.59	1542.8	465.84	623.33	1534.2	149.55	691.05	1827.7	310.33	729.9	1065	442.92	739.09	1057.9	189.67	533.46	1086.2	342.65	535.51	1089.3	262.42	666.01	1001.1	491.08	640.71	995.22	135.61	644.16	1142.6	470.4	670.76	1134.2	151.19	519.95	1052.8	305.15	642.54	752.94	497.41	691.35	667.02	470.39	623.24	666.75	482.06	714.88	754.6	482.19	632.97	551.75	476.78	639.26	543.87	350.46	569	328.77	494.96	625.97	260.28	480.17	561.47	251.51	485.52	634.63	336.22	489.01	587.87	112.31	471.88	605.71	112.21	385.22	522.66	74.453	428.58	531.38	43.874	397.75	529.31	43.378	463.24	704.66	36.064	506.99	734.64	44.12	387.52	799.91	53.503	436.54	670.03	733.04	130.9	715.61	644.41	178.32	644.87	646.29	143.14	735.04	737.01	163.55	621.2	551.33	152.23	656.26	542.89	270.26	559.84	327.11	143.65	620.9	263.1	133.97	553.07	254.67	154.03	624.46	334.57	129.46	589.55	111.54	136.82	606.75	108.92	225.6	518.96	72.935	179.51	526.17	45.881	211.88	522.35	47.474	149.65	697.55	45.796	98.842	727.74	43.354	216.37	795.47	55.24	157.51	583.96	1560.5	307.67	531.67	1293	309.03
7	0.025	766.77	1312.3	317.23	625.57	1542.9	465.83	624.14	1534.3	149.43	691	1827.7	310.31	729.89	1065	442.92	739.09	1057.9	189.66	533.46	1086.2	342.66	535.51	1089.3	262.43	666.02	1001.1	491.11	640.72	995.21	135.63	644.18	1142.6	470.42	670.79	1134.3	151.21	519.96	1052.8	305.19	642.53	752.97	497.43	691.36	667.04	470.43	623.24	666.79	482.1	714.87	754.63	482.22	632.97	551.77	476.79	639.26	543.89	350.46	569.05	328.78	494.94	625.95	260.32	480.2	561.46	251.55	485.57	634.64	336.23	489.04	587.88	112.33	471.88	605.79	112.24	385.23	522.63	74.473	428.58	531.39	43.883	397.76	529.3	43.402	463.25	704.66	36.095	507	734.66	44.126	387.52	799.93	53.555	436.52	670.04	733.06	130.9	715.61	644.42	178.32	644.87	646.3	143.15	735.03	737.02	163.55	621.2	551.35	152.24	656.26	542.88	270.25	559.86	327.13	143.65	620.92	263.08	134.03	553.11	254.7	154.03	624.51	334.55	129.5	589.59	111.56	136.82	606.76	108.92	225.59	518.94	72.964	179.5	526.01	45.956	211.86	522.35	47.474	149.67	697.54	45.787	98.855	727.74	43.358	216.36	795.45	55.238	157.5	583.94	1560.5	307.69	531.75	1293.1	309.03
8	0.029167	766.75	1312.3	317.21	625.56	1542.9	465.82	624.85	1534.4	149.33	690.95	1827.7	310.29	729.89	1065	442.91	739.08	1057.9	189.66	533.46	1086.2	342.66	535.51	1089.3	262.45	666.03	1001.1	491.13	640.72	995.2	135.65	644.2	1142.6	470.42	670.81	1134.3	151.23	519.96	1052.8	305.21	642.53	753	497.45	691.37	667.06	470.46	623.25	666.83	482.13	714.86	754.66	482.25	632.98	551.78	476.8	639.27	543.9	350.45	569.09	328.79	494.93	625.93	260.36	480.23	561.46	251.57	485.61	634.65	336.24	489.07	587.89	112.34	471.88	605.85	112.26	385.24	522.61	74.491	428.58	531.39	43.892	397.76	529.28	43.423	463.25	704.66	36.122	507.02	734.67	44.132	387.51	799.95	53.6	436.51	670.05	733.07	130.9	715.61	644.42	178.33	644.87	646.31	143.16	735.02	737.02	163.56	621.21	551.36	152.25	656.26	542.88	270.23	559.88	327.14	143.65	620.94	263.07	134.07	553.14	254.71	154.02	624.54	334.53	129.53	589.62	111.57	136.83	606.76	108.93	225.59	518.91	72.99	179.49	525.88	46.021	211.83	522.36	47.475	149.69	697.53	45.78	98.866	727.74	43.362	216.35	795.43	55.236	157.5	583.91	1560.5	307.71	531.82	1293.1	309.04
9	0.033333	766.72	1312.3	317.19	625.54	1542.9	465.82	625.48	1534.5	149.23	690.91	1827.7	310.27	729.89	1065	442.9	739.08	1057.9	189.65	533.47	1086.2	342.67	535.51	1089.3	262.46	666.04	1001.2	491.15	640.72	995.2	135.66	644.22	1142.6	470.43	670.83	1134.3	151.24	519.97	1052.9	305.24	642.53	753.02	497.46	691.38	667.07	470.5	623.26	666.86	482.15	714.85	754.68	482.27	632.98	551.79	476.81	639.28	543.9	350.45	569.12	328.8	494.91	625.92	260.39	480.26	561.45	251.6	485.65	634.66	336.24	489.09	587.9	112.35	471.88	605.91	112.28	385.25	522.59	74.507	428.58	531.4	43.9	397.77	529.27	43.442	463.25	704.66	36.147	507.03	734.68	44.137	387.5	799.97	53.639	436.5	670.06	733.09	130.91	715.61	644.42	178.33	644.86	646.33	143.17	735.02	737.02	163.56	621.21	551.37	152.26	656.26	542.87	270.22	559.89	327.16	143.65	620.96	263.05	134.11	553.17	254.73	154.01	624.57	334.51	129.56	589.65	111.59	136.83	606.76	108.94	225.58	518.9	73.013	179.49	525.76	46.076	211.82	522.36	47.476	149.7	697.52	45.774	98.875	727.73	43.365	216.35	795.42	55.233	157.49	583.88	1560.5	307.73	531.88	1293.1	309.05
10	0.0375	766.7	1312.3	317.18	625.52	1542.9	465.81	626.01	1534.6	149.15	690.87	1827.7	310.25	729.89	1065	442.9	739.07	1057.9	189.65	533.47	1086.2	342.67	535.5	1089.3	262.47	666.05	1001.2	491.16	640.72	995.19	135.68	644.23	1142.6	470.44	670.85	1134.3	151.25	519.97	1052.9	305.27	642.53	753.05	497.48	691.39	667.08	470.52	623.26	666.88	482.17	714.85	754.7	482.29	632.98	551.8	476.82	639.29	543.91	350.45	569.15	328.81	494.9	625.91	260.42	480.28	561.45	251.62	485.69	634.67	336.25	489.1	587.9	112.36	471.88	605.96	112.29	385.26	522.57	74.52	428.59	531.4	43.907	397.77	529.26	43.458	463.26	704.66	36.168	507.04	734.69	44.142	387.5	799.98	53.672	436.49	670.07	733.1	130.91	715.61	644.42	178.34	644.86	646.34	143.18	735.01	737.03	163.56	621.22	551.38	152.27	656.26	542.87	270.21	559.91	327.17	143.65	620.97	263.04	134.15	553.2	254.74	154.01	624.6	334.49	129.58	589.67	111.6	136.83	606.77	108.94	225.57	518.88	73.032	179.48	525.66	46.122	211.8	522.37	47.477	149.72	697.51	45.769	98.883	727.73	43.368	216.34	795.41	55.231	157.49	583.86	1560.6	307.75	531.93	1293.1	309.06
